<svg xmlns="http://www.w3.org/2000/svg" xmlns:xlink="http://www.w3.org/1999/xlink" width="218.031" height="143.031" viewBox="0 0 218.031 143.031">
  <defs>
    <style>
      .cls-1 {
        opacity: 0.15;
        filter: url(#filter);
      }

      .cls-2 {
        fill-rule: evenodd;
      }
    </style>
    <filter id="filter" filterUnits="userSpaceOnUse">
      <feFlood result="flood" flood-color="#fff"/>
      <feComposite result="composite" operator="in" in2="SourceGraphic"/>
      <feBlend result="blend" in2="SourceGraphic"/>
    </filter>
  </defs>
  <g class="cls-1">
    <path id="Shape_1_copy_3" data-name="Shape 1 copy 3" class="cls-2" d="M28.611,54.453L61.66,21.373,76.724,36.451,43.675,69.531,28.611,54.453m25.771,25.8,33.049-33.08,17.11,17.126L71.492,97.374,54.382,80.248m6.25-64.143a4.751,4.751,0,1,1,6.715-6.722L81.558,23.609l4,4-6.715,6.722L62.719,18.194l-2.087-2.088M45.792,71.65L79.9,37.51l7.774-7.781,6.473,6.479L86.373,43.99,52.265,78.129,45.792,71.65m43.756-26.6,6.715-6.721,4,4,15.316,15.33a4.751,4.751,0,1,1-6.715,6.722l-1.144-1.145L89.548,45.049m-5.315-23,1.3-7.071A6.369,6.369,0,1,1,98.06,17.3l-2.893,15.7L88.732,26.55l-4.5-4.5M97.659,35.486c0.008-.023.011-0.045,0.017-0.069a8.829,8.829,0,0,0,.308-1.182l1.307-7.084,7.276-1.342a6.375,6.375,0,0,1,2.318,12.537l-7.065,1.3-4.16-4.164m16.691-10.03a9.366,9.366,0,0,0-8.328-2.594L99.871,24l1.134-6.157a9.364,9.364,0,1,0-18.414-3.409l-0.93,5.042L69.464,7.265a7.746,7.746,0,1,0-10.95,10.96l1.028,1.03L25.436,53.394a1.5,1.5,0,0,0,0,2.118l17.181,17.2,8.59,8.6,19.226,19.245a1.5,1.5,0,0,0,2.117,0l34.108-34.139,0.085,0.085a7.746,7.746,0,1,0,10.949-10.96l-13.3-13.314,5.037-.93a9.375,9.375,0,0,0,4.922-15.838" transform="translate(-25 -5)"/>
    <path id="Shape_1_copy_3-2" data-name="Shape 1 copy 3" class="cls-2" d="M196.5,144.38L163.456,111.3,178.52,96.222l33.048,33.08L196.5,144.38m25.771-25.795L189.227,85.5l17.109-17.126,33.049,33.08-17.11,17.126m-64.081-6.256a4.751,4.751,0,1,1-6.716-6.722l14.211-14.224,4-4L176.4,94.1,160.28,110.24l-2.086,2.089m55.491,14.854-34.107-34.14L171.8,85.262l6.473-6.48,7.774,7.781,34.107,34.14-6.473,6.479m-26.576-43.8-6.715-6.722,4-4,15.315-15.33a4.751,4.751,0,1,1,6.716,6.721L205.278,65.2,187.109,83.385m-22.98,5.32-7.064-1.3a6.374,6.374,0,0,1,2.318-12.536l15.681,2.9L168.628,84.2l-4.5,4.5m13.427-13.439c-0.023-.008-0.045-0.011-0.069-0.017a8.819,8.819,0,0,0-1.18-.308l-7.077-1.308-1.341-7.283a6.369,6.369,0,1,1,12.525-2.32l1.3,7.072-4.16,4.164m-10.02-16.707a9.391,9.391,0,0,0-2.592,8.337l1.134,6.157-6.151-1.135a9.372,9.372,0,0,0-3.406,18.432l5.037,0.931-12.2,12.208a7.746,7.746,0,1,0,10.95,10.96l1.028-1.029,34.107,34.139a1.5,1.5,0,0,0,2.117,0l17.18-17.2,8.591-8.6,19.226-19.245a1.5,1.5,0,0,0,0-2.119l-34.107-34.14,0.085-.085a7.746,7.746,0,1,0-10.95-10.96l-13.3,13.314-0.929-5.042a9.36,9.36,0,0,0-15.823-4.927" transform="translate(-25 -5)"/>
  </g>
</svg>
